<svg version="1.2" xmlns="http://www.w3.org/2000/svg" viewBox="0 0 5000 5000" width="5000" height="5000">
	<title>kneeling-svg</title>
	<style>
		.s0 { fill: #ffffff } 
	</style>
	<g id="l2AxKy4COLJHOVhFPP9ZszI">
		<g id="Layer">
			<path id="p5MiXNH0a" fill-rule="evenodd" class="s0" d="m2755.8 4366.1c-87.2-75.6-208.1-197.3-227.8-228.6-15.6-25.4-19.7-27.1-49.3-22.2-29.6 5-33.7 2.5-70.7-35.3-21.4-22.2-51.8-46.9-67.5-54.3-15.6-8.2-44.4-27.9-62.4-44.4-19-16.4-44.4-36.2-56-44.4-17.2-12.3-21.3-21.4-21.3-49.3 0-50.2-82.3-284.5-119.3-340.4-16.4-24.7-45.2-74-63.3-108.5-18.1-34.6-35.3-65.8-39.4-69.9-4.1-3.3-61.7-0.9-131.6 7.4-78.9 9-127.4 11.5-132.4 6.5-4.1-4.1-14.8-35.3-24.6-69-20.6-75.7-32.1-93.8-68.3-106.1-54.2-17.3-255.7-55.9-262.3-49.3-4.1 3.3 5 29.6 18.9 57.5 33.8 66.6 61.7 178.5 78.2 306.7 17.2 138.2 41.1 257.4 60.8 302.6 9 20.6 21.4 65 26.3 98.7 10.7 65.7 51.8 187.4 87.2 256.5 28.7 57.6 29.6 108.5 0.8 133.2-19.7 17.3-32.1 18.1-250 25.5-268 9-492.5 5.7-514.7-5.8-27.9-14.8-12.3-35.3 51-66.6 45.2-23 72.4-31.2 102-31.2 29.6 0 64.1-10.7 135.6-41.9 52.6-23.1 101.2-46.1 107.7-51.8 6.6-5.8 18.9-13.2 26.3-15.7 7.4-2.4 19.8-13.9 27.2-25.5 12.3-18.9 12.3-25.4 0.8-84.6-23-113.5-54.3-217.9-81.4-273.8-14.8-29.6-54.3-106.9-87.2-172.7-61.6-120.9-115.9-250.8-115.9-276.3 0-8.2-14.8-46.8-32.9-86.3-32.9-71.5-56.7-159.5-57.5-210.5 0-18.1-5-29.6-16.5-35.4-21.4-11.5-21.4-37 0-111 16.5-60 25.5-70.7 100.3-123.3 48.5-34.5 72.4-47.7 158.7-85.5 41.1-18.1 82.2-39.5 92.1-48.5 9.9-9.1 19.7-14 22.2-12.3 13.2 13.1 277.1-162.8 358.5-238.5 52.6-48.5 111-95.4 184.2-148 14.8-9.9 14.8-14.8 4.9-95.4-12.3-103.6-7.4-166.1 23.9-285.3 25.4-97 120-345.3 153.7-403.7 10.7-18.9 19.7-39.5 19.7-46 0-20.6-91.2-182.6-109.3-195.7-4.1-3.3-26.3-8.3-50.2-11.5-50.1-6.6-58.3-12.4-78.9-59.2-9-19.8-23-46.1-32.9-57.6-9-11.5-16.4-33.7-16.4-48.5 0-28-17.3-52.6-37-52.6-16.5 0-18.1-24.7-5-61.7 8.3-22.2 12.4-65 13.2-131.6 0-54.2 3.3-111.8 6.6-127.4 5.7-23.8 3.3-32.9-10.7-49.3-21.4-24.7-18.1-51 12.3-97.1 24.7-37 48.5-52.6 137.3-85.5 111-41.1 146.4-48.5 233.5-52.6l83.1-4.1 46 43.6c37.8 36.2 51.8 58.4 81.4 125.8 33.7 78.9 35.4 85.5 34.6 164.4 0 69.9-4.2 92.9-25.5 152.1-20.6 57.6-25.5 88-30.5 173.5-5.7 113.5-1.6 148 19 166.1 7.4 6.6 46.8 43.6 87.9 83.1 71.6 67.4 76.5 75.6 137.3 195.6 34.6 69.1 65 134.9 67.5 146.4 3.3 11.5 19.7 44.4 37 74 46 79.8 123.3 235.2 145.5 296 10.7 29.6 35.4 86.3 53.5 126.6 33.7 73.2 47.6 150.5 36.1 196.5-4.9 21.4-155.4 162-240.9 226.2-28.8 21.3-51.8 44.4-51.8 51.8 0 7.4 11.5 39.4 25.5 70.7 23 53.4 24.7 60 14 80.5-9.9 19-10.7 31.3-1.7 76.5 5.8 30.4 14.8 65.8 19.8 78.9 4.9 13.2 6.5 36.2 3.3 51.8-4.2 21.4-1.7 32.1 10.6 46.1 24.7 27.1 64.2 97.8 65 116.7 0 9.1 5.8 39.5 11.5 68.3 14 69.9 5.8 195.7-16.4 259.8-25.5 70.7-18.1 102 51 208 70.7 111 126.6 226.1 146.3 303.4 16.5 62.5 47.7 132.4 69.9 154.6 17.3 16.5 57.6 16.5 103.6 0 19.7-6.6 85.5-25.5 145.5-41.1 100.3-25.5 119.3-28 230.3-28 328-0.8 588.7-37 672.5-93.7 21.4-14 53.5-35.3 71.6-47.7 18.1-12.3 46-25.5 61.6-27.9 39.5-7.4 61.7 18.1 128.3 144.7 30.4 55.9 64.1 112.6 76.5 125 43.5 46 101.1 153.7 101.1 189.9 0 33.7-50.2 101.9-79.8 110.2-11.5 2.4-54.2 2.4-95.3 0-68.3-3.3-76.5-5.8-93.8-25.5-32-37.8-19.7-67.4 34.6-84.7 59.2-18.9 11.5-60-106.9-90.5-104.4-27.1-352.8-9.8-430 29.6-16.5 8.3-52.7 19.8-79.8 25.5-27.1 5.8-76.5 20.6-108.5 33.7-83.1 32.9-226.1 69.9-347.8 89.7-56.8 9-123.4 22.2-148 28.7-31.3 8.3-86.4 12.4-176.8 12.4h-131.6zm-1249.8-1648.6c36.2-1.6 134.1-4.9 217.1-5.7l151.3-1.7-5.8-94.5c-3.2-51.8-7.4-96.2-9.8-97.9-4.1-4.1-34.6 6.6-130.8 46.9-31.2 13.1-111 39.5-176.7 58.4-152.1 44.4-163.7 49.3-173.5 68.2-15.6 28-2.5 41.9 32 36.2 16.5-3.3 60.1-7.4 96.2-9.9z"/>
		</g>
	</g>
</svg>