<svg version="1.2" xmlns="http://www.w3.org/2000/svg" viewBox="0 0 5000 5000" width="5000" height="5000">
	<title>image</title>
	<style>
		.s0 { fill: #ffffff } 
	</style>
	<g id="l2AxKy4COLJHOVhFPP9ZszI">
		<g id="Layer">
			<path id="p5MiXNH0a" fill-rule="evenodd" class="s0" d="m2435 4939c-106-92-253-240-277-278-19-31-24-33-60-27-36 6-41 3-86-43-26-27-63-57-82-66-19-10-54-34-76-54-23-20-54-44-68-54-21-15-26-26-26-60 0-61-100-346-145-414-20-30-55-90-77-132-22-42-43-80-48-85-5-4-75-1-160 9-96 11-155 14-161 8-5-5-18-43-30-84-25-92-39-114-83-129-66-21-311-68-319-60-5 4 6 36 23 70 41 81 75 217 95 373 21 168 50 313 74 368 11 25 26 79 32 120 13 80 63 228 106 312 35 70 36 132 1 162-24 21-39 22-304 31-326 11-599 7-626-7-34-18-15-43 62-81 55-28 88-38 124-38 36 0 78-13 165-51 64-28 123-56 131-63 8-7 23-16 32-19 9-3 24-17 33-31 15-23 15-31 1-103-28-138-66-265-99-333-18-36-66-130-106-210-75-147-141-305-141-336 0-10-18-57-40-105-40-87-69-194-70-256 0-22-6-36-20-43-26-14-26-45 0-135 20-73 31-86 122-150 59-42 88-58 193-104 50-22 100-48 112-59 12-11 24-17 27-15 16 16 337-198 436-290 64-59 135-116 224-180 18-12 18-18 6-116-15-126-9-202 29-347 31-118 146-420 187-491 13-23 24-48 24-56 0-25-111-222-133-238-5-4-32-10-61-14-61-8-71-15-96-72-11-24-28-56-40-70-11-14-20-41-20-59 0-34-21-64-45-64-20 0-22-30-6-75 10-27 15-79 16-160 0-66 4-136 8-155 7-29 4-40-13-60-26-30-22-62 15-118 30-45 59-64 167-104 135-50 178-59 284-64l101-5 56 53c46 44 63 71 99 153 41 96 43 104 42 200 0 85-5 113-31 185-25 70-31 107-37 211-7 138-2 180 23 202 9 8 57 53 107 101 87 82 93 92 167 238 42 84 79 164 82 178 4 14 24 54 45 90 56 97 150 286 177 360 13 36 43 105 65 154 41 89 58 183 44 239-6 26-189 197-293 275-35 26-63 54-63 63 0 9 14 48 31 86 28 65 30 73 17 98-12 23-13 38-2 93 7 37 18 80 24 96 6 16 8 44 4 63-5 26-2 39 13 56 30 33 78 119 79 142 0 11 7 48 14 83 17 85 7 238-20 316-31 86-22 124 62 253 86 135 154 275 178 369 20 76 58 161 85 188 21 20 70 20 126 0 24-8 104-31 177-50 122-31 145-34 280-34 399-1 716-45 818-114 26-17 65-43 87-58 22-15 56-31 75-34 48-9 75 22 156 176 37 68 78 137 93 152 53 56 123 187 123 231 0 41-61 124-97 134-14 3-66 3-116 0-83-4-93-7-114-31-39-46-24-82 42-103 72-23 14-73-130-110-127-33-429-12-523 36-20 10-64 24-97 31-33 7-93 25-132 41-101 40-275 85-423 109-69 11-150 27-180 35-38 10-105 15-215 15h-160zm-1520-2005c44-2 163-6 264-7l184-2-7-115c-4-63-9-117-12-119-5-5-42 8-159 57-38 16-135 48-215 71-185 54-199 60-211 83-19 34-3 51 39 44 20-4 73-9 117-12z"/>
		</g>
	</g>
</svg>