<svg version="1.2" xmlns="http://www.w3.org/2000/svg" viewBox="0 0 4850 5150" width="4850" height="5150">
	<title>image</title>
	<style>
		.s0 { fill: #ffffff } 
	</style>
	<g id="l2ZHXy6uvv0Rd6iMqj2XWnm">
		<g id="Layer">
			<path id="pPVpn09cX" fill-rule="evenodd" class="s0" d="m1538 4916c4-208 2-236-13-260-23-35-14-80 36-176 42-81 59-150 59-241 0-41 10-87 35-156 58-161 63-292 25-588-7-49-10-133-7-185 3-58-1-134-10-195-12-78-14-155-9-350 4-167 3-262-4-285-6-19-13-79-15-133-5-131-11-140-109-155-94-15-126-30-299-151-76-53-168-114-204-137-152-96-229-190-322-393-23-52-60-116-81-141-21-25-42-59-46-76-10-43-96-164-114-161-21 3-34 157-30 383l2 181-32 77c-18 43-56 113-85 157-29 44-58 93-65 109-24 58-81 45-98-22-46-187-72-352-75-463-3-173 1-185 71-214 31-14 74-35 94-48 70-43 75-153 7-161-31-4-79 47-121 126-32 60-53 69-43 20 13-64 54-134 104-176 44-37 51-49 61-99 15-80 37-137 60-158 11-10 22-33 26-52 7-38 34-56 110-73 43-10 50-9 64 9 14 18 18 19 85 4 60-13 106-13 330-4 168 7 303 19 380 32 78 13 179 21 290 24 153 3 172 1 196-16 39-27 101-38 153-27 44 9 46 9 88-32 90-86 255-103 394-40 48 22 131 83 155 113 15 18 26 20 185 18 131-2 172-6 185-17 20-18 38-18 80 0 26 11 164 16 614 26 460 9 592 14 639 27 59 15 238 102 328 160l46 29-40 73c-38 69-45 75-105 96-8 3-3 28 17 87 25 71 30 98 30 188 0 118-9 162-42 198-13 13-77 50-143 82-120 58-226 93-320 105-64 8-72 13-77 50-3 29-4 30-49 27-42-3-49-1-68 27-28 39-41 39-69 1-34-45-102-35-175 26-18 15-75 48-127 73-52 26-124 64-160 84-73 40-163 67-227 67-23 0-44 4-47 8-3 5-15 53-27 108-11 54-30 121-41 149-19 48-19 52-3 130 14 66 16 122 12 330-3 138-10 284-17 325-7 41-11 134-9 205 2 72 2 150 2 175-7 194-4 268 15 330 63 210 91 313 101 375 28 175 55 471 65 698l5 107h-1624zm431-3151c16-8 41-16 56-19 15-3 29-7 31-9 8-8 6-55-5-157-17-149-25-172-63-190-28-13-37-26-55-80-27-83-28-101-2-133 15-20 19-34 13-61l-6-35-72 3c-369 18-371 18-436 3-163-39-218-47-408-55l-204-10-41 45c-62 67-62 67-22 125 87 130 124 167 258 256 72 48 161 115 197 148 39 37 81 67 105 74 22 7 79 32 127 56 48 24 96 44 107 44 10 0 49-14 85-31 88-41 160-39 233 8 56 36 64 38 102 18zm1250-15c53-26 121-48 204-65 15-3 58-34 96-68 38-35 103-86 145-113 131-84 162-111 261-225 83-96 96-116 93-142-3-26-8-32-36-38-18-4-41-13-50-22-21-18-246-29-562-27-118 0-280-4-360-10-252-20-362-26-365-20-2 3-6 36-10 73-7 64-6 69 13 74 37 9 37 44 1 161-7 21-25 42-49 57-36 22-39 29-45 82-3 32-9 85-13 118-10 79-7 91 30 106 17 7 44 24 60 37 47 40 85 43 143 11 105-58 196-56 295 6 30 19 63 34 73 35 10 0 44-13 76-30z"/>
		</g>
	</g>
</svg>