<svg version="1.2" xmlns="http://www.w3.org/2000/svg" viewBox="0 0 5470 4560" width="5470" height="4560">
	<title>image</title>
	<style>
		.s0 { fill: #ffffff } 
	</style>
	<g id="l2lxZH8AdXetjkZ9by4lDIJ">
		<g id="Layer">
			<path id="p1FJUaGy2m" fill-rule="evenodd" class="s0" d="m1330 4545c14-8 37-14 52-15 38 0 74-16 146-62 37-24 62-47 62-58 0-40-333-314-440-363-36-16-75-33-87-39-29-14-82-89-110-157-16-40-23-76-23-127 0-46-5-77-15-90-22-29-18-55 15-107 22-35 43-53 87-75 32-15 113-58 180-95 67-37 126-67 131-67 21 0 43-41 61-111 28-110 60-335 71-505 12-172 24-226 79-356 22-51 57-161 77-243 20-83 51-205 70-272 32-112 34-126 24-185-14-86-12-165 5-212l14-39-55-54c-30-29-60-53-67-53-7 0-32-25-56-54-36-46-49-55-80-58l-36-3-6-90c-7-106-10-116-55-150-25-19-38-40-50-83-23-81-48-125-78-142-33-17-40-46-32-117 4-38 14-65 31-85 14-16 25-34 25-39 0-17 104-124 173-177 81-63 209-122 264-122 21 0 73 14 115 31 61 25 91 44 141 94 83 82 137 165 154 234 7 31 16 106 19 166 7 118 42 295 73 368 15 35 38 59 100 106 44 33 93 67 108 75 56 29 194 149 235 203 24 31 55 70 70 88 65 76 129 222 161 365 18 84 21 129 21 390 1 271 3 298 20 330 30 56 36 97 20 150-13 44-13 51 6 91 11 24 20 56 20 71 0 41 10 58 34 58 29 0 223 144 231 172 4 12 22 44 40 72 18 28 42 85 54 126 12 41 29 93 37 115 20 59 123 160 240 237 92 61 145 108 184 164 9 12 45 34 80 49l65 28 180-7c204-8 240-3 358 50 64 29 84 34 120 29 31-5 57-1 97 14 76 29 166 36 256 21 71-12 77-12 102 7 51 37 58 67 39 163-9 47-22 117-27 155-6 39-18 100-27 138l-16 67-211-2-211-3-14-41c-12-34-12-44 0-70 18-37 46-41 98-15 75 39 101 22 101-66 0-53-5-65-36-81-26-14-200-1-304 23-62 14-98 16-205 9-71-4-202-9-290-10-138-1-168-4-220-24-77-28-215-62-231-56-7 3-15 18-19 35-8 38-21 38-100 6-33-14-80-25-105-25-25 0-61-5-80-11-19-5-64-14-99-20l-63-9-112-111-111-111-202-99c-112-55-209-96-217-93-8 3-25 36-37 72-40 121-150 386-176 426-22 34-25 46-19 91 7 59-5 105-41 153l-24 32h-392c-345-1-389-2-367-15zm626-378c38-25 81-58 96-74 37-39 60-132 56-230l-3-78-110 1c-60 1-167 7-238 14-134 14-154 23-129 59 6 9 27 45 47 82 19 36 61 96 91 135 31 38 62 83 69 99 25 56 22 56 121-8zm-349-902c54-21 278-85 338-97 77-15 88-24 82-64-6-33-5-34 30-34 33 0 35-1 29-27-3-16-13-64-21-108-8-44-33-125-55-180-40-101-70-214-70-271 0-53-29-124-51-124-15 0-19 7-19 34 0 19-16 94-35 168-36 136-81 239-232 539-40 81-73 154-73 163 0 20 28 21 77 1z"/>
		</g>
	</g>
</svg>