<svg version="1.2" xmlns="http://www.w3.org/2000/svg" viewBox="0 0 6610 3630" width="6610" height="3630">
	<title>image</title>
	<style>
		.s0 { fill: #ffffff } 
	</style>
	<g id="l34pX6VT3gtj4ekhGAwjKLX">
		<g id="Layer">
			<path id="p8VMlL8p8" fill-rule="evenodd" class="s0" d="m5686 3502c-80-43-188-114-205-134-17-21-104-66-126-66-28 0-18 54 15 83 32 29 38 55 18 75-26 26-89 4-160-54-16-13-61-30-103-39-46-11-90-28-115-46-37-27-40-33-40-76 0-37-7-59-33-98-18-27-53-84-78-125-25-41-101-147-170-235-69-88-140-182-159-210-18-27-55-79-81-116-47-64-120-208-154-301-9-26-24-50-33-52-23-8-501-106-527-109-19-2-20 6-27 153-9 185-30 357-57 463-11 43-52 145-91 227-38 82-70 154-70 159 0 6-14 26-31 46-39 44-93 59-177 51-96-10-165-41-242-107-74-63-169-136-246-190-74-51-122-98-165-161-47-68-77-98-99-98-9 0-79-31-155-70-139-69-224-96-274-87-14 3-69-4-121-15-91-19-107-20-360-9-146 6-274 10-285 9-20-3-20 3-20 237 0 269-5 294-76 364-46 46-238 139-316 152-68 12-161 1-227-26-69-29-336-299-381-385-31-60-37-122-19-191 9-35 17-104 19-154 5-216 26-296 88-334 19-12 38-29 41-38 4-9 4-80 0-157-5-102-12-156-26-196-50-137-69-241-66-355 3-100 6-117 37-185 18-41 53-98 77-126 76-90 269-224 323-224 8 0 32-12 52-26 24-16 62-29 106-36 37-6 142-34 233-63 91-29 197-58 235-65 39-7 86-21 106-31 30-15 75-18 315-24 232-6 324-13 543-41 279-36 406-67 525-125 32-16 68-29 80-29 12 0 51-9 87-19 91-26 507-49 575-32 155 39 321 205 394 392 34 88 69 226 79 309l6 55 111 5c108 6 113 7 148 38 20 18 44 32 53 32 31 0 148 33 201 56 34 15 79 49 130 101 134 133 192 284 179 466-6 97-49 192-127 286l-54 63 19 47c10 25 64 181 120 346 56 165 114 329 129 365 37 85 102 200 129 227 13 13 65 34 132 53 61 17 160 53 222 81 61 27 115 49 119 49 8 0 235 83 287 104 28 12 37 22 37 40 0 18 8 27 33 36 30 10 31 12 13 25-10 8-16 20-13 28 3 8 0 20-6 26-19 19-65 12-143-24-41-19-82-35-90-35-24 0-16 20 21 53 19 17 35 34 35 39 0 19-71 6-124-22zm-2361-1340c16-26 67-262 69-316 1-61 0-63-60-140-93-120-113-111-134 56-13 99-26 123-72 136-44 13-49 43-10 65 26 15 76 71 155 173 29 37 41 43 52 26zm-1595-140c11-11 20-33 20-48 0-50-80-103-153-103-142 1-327 14-336 25-15 18-22 60-12 75 8 12 16 9 45-17 40-35 94-47 188-40 54 4 65 8 83 33 51 72 71 85 138 94 4 1 16-8 27-19z"/>
		</g>
	</g>
</svg>