<svg version="1.2" xmlns="http://www.w3.org/2000/svg" viewBox="0 0 3670 5570" width="3670" height="5570">
	<title>image</title>
	<style>
		.s0 { fill: #ffffff } 
	</style>
	<g id="liREoxRymdBcfz7VDnJ88Z">
		<g id="Layer">
			<path id="p1EYzksV32" fill-rule="evenodd" class="s0" d="m427 5498c3-40 11-131 18-201 9-92 9-139 2-167-10-37-8-45 30-117 40-76 63-143 118-345l27-96-23-62c-20-55-21-69-12-115 7-29 36-106 67-172 111-241 133-322 145-548 8-129 13-155 64-330 31-104 83-269 115-365 33-96 70-220 82-275 25-113 52-171 120-265 62-86 66-96 75-160 4-30 23-98 42-150 19-52 52-147 74-210 41-120 71-172 174-305 34-44 87-123 117-175 30-52 69-118 87-147 17-28 47-96 65-150 111-330 200-535 265-608 15-17 35-53 45-80 18-49 100-183 120-197 38-26 616-38 616-13 0 6-33 33-72 61-81 55-197 94-284 94-58 0-114 15-126 32-4 7-8 23-8 34 0 12-6 24-13 27-7 3-19 25-26 48-7 24-28 77-48 116-26 54-39 99-50 175-20 139-75 315-129 418-39 73-47 97-55 174-16 151-100 360-219 544-28 42-50 80-50 84 0 5 7 23 16 40 9 18 31 90 49 161 18 71 39 135 46 142 21 21 72 21 118 1 29-14 55-39 93-93 94-133 93-130 76-167-14-28-14-35-1-61 23-45 74-95 97-95 11 0 49-31 90-73 74-76 115-101 227-136 90-28 138-34 188-22 69 15 117 55 154 130 31 64 32 69 32 196 0 123-2 133-29 189-16 32-57 89-92 126-43 45-64 76-64 92 0 25-27 58-48 58-19 0-25 21-8 33 8 7 28 42 45 78 31 72 29 99-8 80-30-17-69-3-87 30-13 26-54 42-54 21 0-22-43-52-74-52-39 0-46-12-46-76 0-55-11-56-84-9-59 38-66 49-66 106 0 50 13 75 49 94 20 10 42 40 72 101 24 47 53 93 64 100 11 8 49 33 84 56 80 52 113 103 142 222 20 78 23 115 21 261-1 137 3 190 19 272 18 88 20 129 17 280-4 152-8 187-27 241-50 138-229 276-482 370-58 22-120 47-138 57-32 16-33 19-27 61 3 25 1 67-5 93-9 45-7 58 20 137 17 49 31 105 31 125 0 20 9 78 20 130 11 52 20 122 20 157v62h-1809zm1915-1106c156-151 165-188 99-415-17-59-38-151-45-204-14-99-27-123-67-123-63 0-109 66-144 207-13 50-29 102-36 115-7 12-18 50-25 83-7 33-18 74-25 92-12 30-11 35 11 65 21 29 22 36 13 87-13 68-3 202 16 224 12 16 17 15 54-6 23-12 90-68 149-125z"/>
		</g>
	</g>
</svg>