<svg version="1.2" xmlns="http://www.w3.org/2000/svg" viewBox="0 0 3870 4110" width="3870" height="4110">
	<title>image</title>
	<style>
		.s0 { fill: #ffffff } 
	</style>
	<g id="l31tj5zmBMXPfexC0q8NL7g">
		<g id="Layer">
			<path id="pJFbculqE" class="s0" d="m1756 4098c-7-27-26-159-26-184 0-24-3-26-32-20-18 3-51 8-74 12l-41 6-12-113c-7-63-16-152-21-199-5-47-16-168-25-270-9-102-22-247-30-324-8-76-15-162-15-191 0-30-5-57-11-61-6-4-8-17-3-33 4-14 6-75 6-136-1-73 4-127 14-160 16-51 36-214 36-295 0-49-10-109-22-125-4-5-10-32-14-60-13-100-141-365-177-365-9 0-45 25-79 56-75 67-110 83-260 119-150 35-246 33-286-7-24-23-28-41-46-174-22-170-20-266 11-446 11-65 23-159 26-210 6-98 6-99-61-269-17-43-17-53-4-115 8-38 13-111 12-162-1-51 0-98 4-103 3-5 19 5 35 22 24 25 29 40 29 79 0 66 18 152 35 169 12 13 18 13 40 1 41-22 49-3 30 65-16 53-16 60 0 101 15 39 15 53 4 109-9 49-10 73-1 102 6 21 18 94 27 163 27 213 59 340 85 340 6 0 29-17 53-39 23-21 66-53 95-71 29-17 66-51 82-75 37-53 86-93 170-136 58-30 74-33 151-34 81 0 87-2 126-33 60-47 99-95 113-138 20-59 7-167-29-250-55-129-65-292-23-388 44-98 122-134 271-122 155 12 213 60 224 183 3 37 12 86 19 108 11 33 12 47 2 70-7 19-10 58-7 106 5 67 2 88-22 158-24 67-34 84-62 101-33 19-33 20-33 98 0 76 1 79 35 112 32 31 37 33 70 23 39-12 92-4 129 21 38 25 87 88 105 136 13 36 23 45 55 57 22 7 60 29 85 48 41 32 46 34 62 20 28-27 69-130 85-217 29-162 36-210 30-231-3-12-28-39-56-60-50-37-80-85-80-125 0-10 13-38 29-63 16-25 32-66 36-94 6-48 36-95 59-95 6 0 28 19 50 42 28 31 44 62 57 110 10 36 28 83 40 103 25 42 24 21 11 380-6 159-15 278-26 326-23 106-73 241-98 262-31 26-58 23-253-29-27-7-53-10-56-6-4 4-14 81-23 172-9 91-23 192-31 225-8 33-16 96-18 140-3 44-12 98-21 119-9 21-17 68-19 103-2 57 1 67 21 83 12 10 22 27 22 39 0 38 70 174 115 222 42 45 45 51 45 105 0 41 12 92 45 186 27 78 60 207 84 326 53 262 57 295 37 311-21 17-20 71 0 146 25 94 32 125 39 193l7 62h-156c-118 0-156-3-156-12 0-11-48-142-101-277-9-22-13-23-68-18-55 6-59 5-69-18-7-14-18-25-26-25-12 0-15 21-15 111-1 88-5 120-21 156-11 25-20 54-20 64 0 18-10 19-160 19-120 0-161-3-164-12z"/>
		</g>
	</g>
</svg>