<svg version="1.2" xmlns="http://www.w3.org/2000/svg" viewBox="0 0 3130 2990" width="3130" height="2990">
	<title>image</title>
	<style>
		.s0 { fill: #fffbfb } 
	</style>
	<g id="l3a42VMrJF8upLBxhhqxUWT">
		<g id="Layer">
			<path id="p1Aj082Zi7" class="s0" d="m0 2357c0-27 7-36 42-56 77-44 196-61 282-42 23 6 48 6 62 0 26-9 84-92 84-119 0-8 9-23 20-33 11-9 20-21 20-27 0-16-28-24-43-12-6 5-29 12-49 16-21 3-54 9-74 12-27 5-35 3-32-6 4-13 145-66 203-77 43-8 60-27 86-91 12-31 39-91 61-132 21-41 45-105 55-142 16-62 16-70 0-120-9-29-21-96-28-149-10-89-9-103 11-180 48-179 48-184 6-300-21-57-42-114-46-126-6-13-21-24-42-28-18-4-44-14-56-22-23-14-24-18-17-93 5-54 3-83-5-97-11-17-8-26 19-63 17-24 31-55 31-70 0-14 14-48 31-76 18-27 35-60 38-73 13-47 54-66 134-64 141 4 246 43 281 103 17 29 21 52 21 131v97l-51 83c-75 124-94 239-39 239 7 0 43 16 81 35 71 35 155 109 180 157 17 32 44 208 44 287 0 95 20 191 51 253 5 10 9 24 9 32 0 25 54 103 86 124 24 16 34 18 50 8 11-6 66-11 134-11 95 0 127 4 185 24 39 13 82 32 97 43 59 41 112 56 228 62 63 4 180 14 260 22l145 16 125-28c154-33 254-40 365-24l85 12v193 192l-112 8c-62 3-144 11-183 16-98 13-436 49-461 49-15 0-25 11-37 40-8 22-19 40-24 40-4 0-24-10-43-21-32-20-51-22-265-25-253-4-405-17-487-40-29-8-85-19-125-23-49-6-80-15-100-30-15-12-66-49-111-83-91-67-176-160-224-244-16-30-34-54-39-54-5 0-15 12-21 28-34 78-216 267-364 376-43 33-86 68-94 78-24 29-80 37-267 37l-173-1z"/>
		</g>
	</g>
</svg>